<?xml version="1.0" encoding="UTF-8" standalone="no"?>
<!-- Created with Inkscape (http://www.inkscape.org/) -->

<svg
   width="27.751406mm"
   height="16.155603mm"
   viewBox="0 0 27.751406 16.155603"
   version="1.1"
   id="svg1"
   xml:space="preserve"
   xmlns:inkscape="http://www.inkscape.org/namespaces/inkscape"
   xmlns:sodipodi="http://sodipodi.sourceforge.net/DTD/sodipodi-0.dtd"
   xmlns="http://www.w3.org/2000/svg"
   xmlns:svg="http://www.w3.org/2000/svg"><sodipodi:namedview
     id="namedview1"
     pagecolor="#ffffff"
     bordercolor="#000000"
     borderopacity="0.25"
     inkscape:showpageshadow="2"
     inkscape:pageopacity="0.0"
     inkscape:pagecheckerboard="0"
     inkscape:deskcolor="#d1d1d1"
     inkscape:document-units="mm" /><defs
     id="defs1" /><g
     inkscape:label="Layer 1"
     inkscape:groupmode="layer"
     id="layer1"
     transform="translate(-243.43011,-142.85432)"><g
       id="g7"><path
         d="m 260.03529,142.85433 c -0.24303,-5e-5 -0.48666,0.005 -0.73019,0.016 -0.29781,0.35938 -0.29781,0.71215 0,1.05833 1.12128,0.47662 2.26783,0.8735 3.43959,1.19063 0.26459,0.61735 0.70556,1.05833 1.32291,1.32291 -0.80042,0.0954 -1.59417,0.22773 -2.38125,0.39688 -2.19207,-0.37978 -4.39692,-0.51202 -6.61458,-0.39688 -1.74022,0.14637 -2.97495,0.98424 -3.70417,2.51355 -0.41743,0.21109 -0.8584,0.34337 -1.32291,0.39687 0.12103,0.10954 0.20918,0.24184 0.26458,0.39688 -0.60238,0.20559 -1.17565,0.47017 -1.71979,0.79375 -1.8619,-0.68556 -3.4053,-1.78801 -4.63021,-3.3073 -0.1764,-0.17639 -0.35277,-0.17639 -0.52917,0 0.51874,0.78391 1.13613,1.48945 1.85209,2.11667 4.84777,2.51164 9.61028,5.15747 14.2875,7.9375 1.61819,1.02447 3.38208,1.59774 5.29166,1.71979 1.05437,-0.69596 1.71582,-1.66611 1.98438,-2.91041 1.12606,-0.33274 1.78752,-1.08242 1.98437,-2.24896 1.08188,-0.82376 1.56686,-1.9262 1.45521,-3.30729 0.97975,-1.1164 1.15623,-2.35115 0.52917,-3.70417 -0.83265,-0.20574 -1.67031,-0.42622 -2.51354,-0.66146 -0.19976,-0.56438 -0.55246,-1.00536 -1.05834,-1.32292 -1.77482,-0.41894 -3.45051,-1.03632 -5.02708,-1.85208 -0.72461,-0.0989 -1.45113,-0.14817 -2.18023,-0.14831 z m -2.26498,6.40116 c 2.55063,-0.0234 2.57694,1.28782 0.0796,3.93361 0.0283,0.80894 -0.2804,1.42629 -0.92604,1.85208 -1.84885,-0.83582 -3.61275,-1.80594 -5.29166,-2.91041 0.9448,-1.25857 2.17953,-2.00822 3.70416,-2.24896 0.14711,-0.10123 0.23531,-0.23352 0.26459,-0.39688 0.85743,-0.14754 1.58077,-0.22404 2.16937,-0.22944 z"
         style="clip-rule:evenodd;fill:#070707;fill-rule:evenodd;stroke-width:0.264583;image-rendering:optimizeQuality;shape-rendering:geometricPrecision;text-rendering:geometricPrecision"
         id="path5" /><path
         d="m 266.14448,152.37933 c -0.0719,-0.004 -0.14707,0.002 -0.22479,0.016 -0.82047,0.3448 -1.65828,0.69757 -2.51355,1.05833 -0.35975,-0.53022 -0.8448,-0.75076 -1.4552,-0.66146 -0.91442,0.72861 -1.44359,1.65465 -1.5875,2.77813 -0.78365,-0.10142 -1.04827,0.16317 -0.79375,0.79375 1.48076,0.91773 3.06827,1.53508 4.7625,1.85208 -0.0432,-0.62357 8.9e-4,-1.24095 0.13229,-1.85208 0.81624,-1.19068 1.56581,-2.42541 2.24896,-3.70417 -0.16371,-0.17578 -0.35316,-0.26928 -0.56896,-0.2806 z"
         style="clip-rule:evenodd;fill:#f8f8f8;fill-rule:evenodd;stroke-width:0.264583;image-rendering:optimizeQuality;shape-rendering:geometricPrecision;text-rendering:geometricPrecision"
         id="path6" /></g></g></svg>
