<svg xmlns="http://www.w3.org/2000/svg" xml:space="preserve" viewBox="0 0 27.8 16.2"><g fill-rule="evenodd" clip-rule="evenodd" image-rendering="optimizeQuality" shape-rendering="geometricPrecision" text-rendering="geometricPrecision"><path fill="#070707" d="M16.6 0H16c-.3.4-.3.7 0 1 1.1.6 2.2 1 3.4 1.3.3.6.7 1 1.3 1.3-.8 0-1.6.2-2.3.4-2.2-.4-4.4-.5-6.7-.4-1.7.1-3 1-3.7 2.5l-1.3.4.3.4-1.7.8A11 11 0 0 1 .5 4.4c-.1-.2-.3-.2-.5 0 .5.8 1.1 1.5 1.9 2.1 4.8 2.5 9.6 5.2 14.2 8a11 11 0 0 0 5.3 1.7c1-.7 1.7-1.7 2-3 1.1-.3 1.8-1 2-2.2 1-.8 1.6-2 1.5-3.3 1-1.1 1.1-2.4.5-3.7l-2.5-.7c-.2-.5-.6-1-1-1.3-1.9-.4-3.5-1-5.1-1.9L16.6 0zm-2.3 6.4c2.6 0 2.6 1.3.1 4a2 2 0 0 1-1 1.8c-1.8-.8-3.5-1.8-5.2-3 1-1.2 2.2-2 3.7-2.2.2 0 .2-.2.3-.4a14 14 0 0 1 2.1-.2z"/><path fill="#f8f8f8" d="M22.7 9.5h-.2L20 10.6c-.4-.5-.9-.8-1.5-.7-.9.8-1.4 1.7-1.6 2.8-.8 0-1 .2-.8.8 1.5 1 3.1 1.5 4.8 1.9l.1-1.9c.9-1.2 1.6-2.4 2.3-3.7a.8.8 0 0 0-.6-.3z"/></g></svg>