<svg xmlns="http://www.w3.org/2000/svg" xml:space="preserve" viewBox="0 0 91.8 13.8"><g fill="#fff"><path stroke="#524e4e" stroke-width=".5" d="M13.5 7.2v1.2m-2.7 4.9v-5m14-.3.5-1m15.6 2.5q.4 1 .3 1.8M17.3 5.2l1.2 2.7m0 0q0 .5.5 1m5.4-3L23 8.3m-4.8 4.8-3-5.7m65.2-2.2q.1.9.5 1.4m.1.1.4 1m.3.5q0 .6.5 1.1m.4 0 .7-1.6m.8 4.1q-.4.5-.6 1.2m-2.2.3-1-2.2m-.7-1.3q0-.5-.2-.6h-.2l-1.8 4.2m-2.2-.4-2-3.9" vector-effect="non-scaling-stroke"/><path d="M3 13.4a.1.1 0 0 1-.1.1H0a.1.1 0 0 1-.1 0V0A.1.1 0 0 1 0 0h2.8zm48.5.1h-2.9V0h3L57 8.4h.2V0H60l.1 13.3v.1h-3l-5.3-8.3h-.2v8.4zM43 5V2h2.9v3l.1.1h1.4q.3 0 .3.4V7q0 .3-.3.3H46l-.1.1v3.1a.6.6 0 0 0 .4.6q.4.2.7 0 .3-.2.3.1l.6 1.8q0 .2-.2.3c-1.5.8-3.7.6-4.4-1.2-.5-1.4-.3-3.2-.3-4.7l-.1-.1H42q-.2 0-.2-.2V5.3l.1-.2h.9l.1-.1zM13.5 7.2v6.3h-2.6l-.1-.2v-5A1.7 1.7 0 0 0 8 7.6q-.5.5-.5 1.1v4.7a.1.1 0 0 1-.2.1H4.8q-.2 0-.2-.2v-8q0-.2.2-.2h2.5q.2 0 .2.2v.6q0 .3.2 0Q9 4.6 10.9 5q2 .6 2.6 2.3zM29 4.9c-1.5 0-2.7.7-3.7 2L24.8 8a5 5 0 0 0 0 2.4c.6 2.1 2 3.2 4.2 3.3a5 5 0 0 0 4.5-2v-.1l-2-1a.1.1 33.2 0 0-.1 0c-.6.7-1.4 1-2.4.8-.6 0-1-.3-1.3-.8v-.2c-.4-.5-.2-.7.3-.7h5.5l.1-.2c0-2.2-1-4-3.2-4.5H29zm.1 1.8h.2a1.6 1.4.1 0 1 1.6 1.4h-3.3A1.6 1.4.1 0 1 29 6.7zm11.8 2.8q.4 1 .3 1.8-.2 1.6-1.8 2.1-2.8 1-5.2-.6a.2.2 0 0 1 0-.3l1-1.6q0-.2.2 0c.7.4 2.5 1.3 2.8.3a.6.6 17.9 0 0-.4-.8c-1.1-.4-3-1.1-3.1-2.6q0-2 1.8-2.6 2-.8 4.5.3.1 0 0 0l-.8 1.8Q39 6.7 37.5 7l-.2.2v.5a.3.3 4.5 0 0 .2.2c1.2.5 2.3.6 3.3 1.7zm25.2-4.7a4.5 5 89.5 0 0-5 4.6 4.5 5 89.5 0 0 5.1 4.4 4.5 5 89.5 0 0 5-4.5 4.5 5 89.5 0 0-5-4.5zm.2 2.5A2 2 3.3 0 1 68 9.9a2 2 0 0 1-2.2 1.4 2 2 84.1 0 1-1.7-1.3V8.7a2 2 4.3 0 1 1.6-1.4 2 2 3.3 0 1 .5 0zm-49-2.1 1.2 2.7q0 .5.5 1l.2.6a.1.1 45.9 0 0 .3 0l1.9-4.3a.2.2 11.7 0 1 .2 0h3.1l-.3.7L23 8.3l-2.7 5q-.1.2-.3.2h-1.5l-.2-.1-.2-.3-3-5.7L14 5.2zm63.1 0q.1.9.5 1.4v.1l.5 1 .3.5q0 .6.5 1.1v.2h.3v-.2l.8-1.6 1.1-2.5h3.2q.1 0 0 0l-3.5 6.6q-.4.5-.6 1.2l-.3.4-.2.1h-1.6a.2.2 72.2 0 1-.1 0v-.2l-1-2.2-.7-1.3q0-.5-.2-.6h-.2l-1.8 4.2q-2 .5-2.2-.4l-2-3.9L71 5.3V5h3l.2.2 1.8 4q.2.5.4 0l1.8-4q0-.2.2-.2z"/><path d="M17.3 5.2q.4.4.5.8l.4.9.3 1zm63.1 0 .5 1v.4q-.4-.5-.5-1.4zm-56 .7Q24 7.2 23 8.3zm56.6.8q.4.5.4 1zM25.3 7l-.5 1q0-.8.5-1zm-11.8.2q.4.6 0 1.2zm1.7.2 3 5.7q-1.7-2.7-3-5.7zM19 9q-.4-.6-.5-1.1 0-.1 0 0 .4.4.5 1zm64.3-1.3-.7 1.6v-.2q.2-.7.7-1.4zm-1.1 1.6q-.4-.5-.5-1.1.4.4.5 1.1zm-71.4-1v5l-.1-.3V8.5l.1-.2zm62.3.8 2 3.9q-1.1-2-1.9-4zm6.5.7q-.3-.4-.5.2L78 12l-.7 1.3 1.8-4.1q0-.2.2-.1t.2.6zm-38.7-.3q.7.8.3 1.8 0-.9-.3-1.8zm50.9 2.4a1.8 1.8 0 0 1-1.9 1.8 1.8 1.8 0 0 1-1.8-1.8A1.8 1.8 0 0 1 90 10a1.8 1.8 0 0 1 1.9 1.9zm-11.5-.8 1 2.2q-.8-1-1-2.2zm3.8.7q0 .7-.6 1.2.2-.7.6-1.2z"/><path stroke="#cec9c7" stroke-width=".5" d="M64.2 10V8.7" vector-effect="non-scaling-stroke"/><path d="M64.2 8.7V10a2 2 44 0 1 0-1.3z"/></g></svg>